<svg width="24" height="24" viewBox="0 0 24 24" fill="none" xmlns="http://www.w3.org/2000/svg">
<path d="M12.5 19H13.25V18.25H12.5V19ZM11.5 19V18.25H10.75V19H11.5ZM10 19H10.75V18.25H10V19ZM14 19V18.25H13.25V19H14ZM18 16H17.25V16.75H18V16ZM18 10H18.75H18ZM14 4.34141H13.25V4.87179L13.7501 5.04854L14 4.34141ZM10 4.34141L10.2499 5.04854L10.75 4.87179V4.34141H10ZM6 10H6.75H6ZM6 16V16.75H6.75V16H6ZM11.5 4.02054H10.75V4.83496L11.5617 4.768L11.5 4.02054ZM12.5 4.02054L12.4383 4.768L13.25 4.83496V4.02054H12.5ZM12.5 18.25H11.5V19.75H12.5V18.25ZM11.75 19V20H13.25V19H11.75ZM11.75 20C11.75 19.8619 11.8619 19.75 12 19.75V21.25C12.6904 21.25 13.25 20.6904 13.25 20H11.75ZM12 19.75C12.1381 19.75 12.25 19.8619 12.25 20H10.75C10.75 20.6904 11.3096 21.25 12 21.25V19.75ZM12.25 20V19H10.75V20H12.25ZM9.25 19V20H10.75V19H9.25ZM9.25 20C9.25 21.5188 10.4812 22.75 12 22.75V21.25C11.3096 21.25 10.75 20.6904 10.75 20H9.25ZM12 22.75C13.5188 22.75 14.75 21.5188 14.75 20H13.25C13.25 20.6904 12.6904 21.25 12 21.25V22.75ZM14.75 20V19H13.25V20H14.75ZM18.5 18.25H14V19.75H18.5V18.25ZM19.25 17.5C19.25 17.9142 18.9142 18.25 18.5 18.25V19.75C19.7426 19.75 20.75 18.7426 20.75 17.5H19.25ZM18.5 16.75C18.9142 16.75 19.25 17.0858 19.25 17.5H20.75C20.75 16.2574 19.7426 15.25 18.5 15.25V16.75ZM18 16.75H18.5V15.25H18V16.75ZM18.75 16L18.75 10H17.25L17.25 16H18.75ZM18.75 10C18.75 7.05984 16.8706 4.56056 14.2499 3.63428L13.7501 5.04854C15.7902 5.76961 17.25 7.71529 17.25 10H18.75ZM14.75 4.34141V4H13.25V4.34141H14.75ZM14.75 4C14.75 2.48122 13.5188 1.25 12 1.25V2.75C12.6904 2.75 13.25 3.30964 13.25 4H14.75ZM12 1.25C10.4812 1.25 9.25 2.48122 9.25 4H10.75C10.75 3.30964 11.3096 2.75 12 2.75V1.25ZM9.25 4V4.34141H10.75V4H9.25ZM9.75007 3.63428C7.12939 4.56056 5.25 7.05984 5.25 10H6.75C6.75 7.71529 8.20984 5.76961 10.2499 5.04854L9.75007 3.63428ZM5.25 10L5.25 16H6.75L6.75 10H5.25ZM5.5 16.75H6V15.25H5.5V16.75ZM4.75 17.5C4.75 17.0858 5.08579 16.75 5.5 16.75V15.25C4.25736 15.25 3.25 16.2574 3.25 17.5H4.75ZM5.5 18.25C5.08579 18.25 4.75 17.9142 4.75 17.5H3.25C3.25 18.7426 4.25736 19.75 5.5 19.75V18.25ZM10 18.25H5.5V19.75H10V18.25ZM12.25 4.02054V4H10.75V4.02054H12.25ZM12 3.25C11.811 3.25 11.6237 3.25778 11.4383 3.27308L11.5617 4.768C11.706 4.75609 11.8522 4.75 12 4.75V3.25ZM12.5617 3.27308C12.3763 3.25778 12.189 3.25 12 3.25V4.75C12.1478 4.75 12.294 4.75609 12.4383 4.768L12.5617 3.27308ZM11.75 4V4.02054H13.25V4H11.75ZM12 4.25C11.8619 4.25 11.75 4.13807 11.75 4H13.25C13.25 3.30964 12.6904 2.75 12 2.75V4.25ZM12.25 4C12.25 4.13807 12.1381 4.25 12 4.25V2.75C11.3096 2.75 10.75 3.30964 10.75 4H12.25Z" fill="#4F4F4F"/>
<path d="M16.5 3.5V3.5C17.8081 4.48108 18.8212 5.80301 19.4285 7.32119L19.5 7.5" stroke="#4F4F4F" stroke-width="1.5" stroke-linecap="round"/>
<path d="M7.5 3.5V3.5C6.1919 4.48108 5.1788 5.80301 4.57152 7.32119L4.5 7.5" stroke="#4F4F4F" stroke-width="1.5" stroke-linecap="round"/>
</svg>
