<svg width="24" height="24" viewBox="0 0 24 24" fill="none" xmlns="http://www.w3.org/2000/svg">
<path fill-rule="evenodd" clip-rule="evenodd" d="M7.82388 2C5.11547 2 2.74286 3.81447 2.03339 6.4283L1.47637 8.48046C1.10117 9.86279 1.63237 11.332 2.80482 12.1548C2.86886 12.1997 2.934 12.2422 3.00011 12.2822V16C3.00011 18.973 5.16229 21.5239 8 22H16.0001C18.8378 21.5239 21.0001 18.973 21.0001 16V12.2818C21.0659 12.2423 21.1308 12.2001 21.1945 12.1554C22.376 11.3263 22.8692 9.81742 22.4054 8.45062L21.5985 6.07222C20.7725 3.63775 18.4874 2 15.9166 2H7.82388ZM19.0001 12.7286C18.2284 12.6504 17.4849 12.2973 16.9272 11.6864L16.6853 11.4214C16.1383 10.8223 15.1909 10.8354 14.6606 11.4493L14.5611 11.5645C13.2165 13.1215 10.7784 13.042 9.5381 11.4007C9.09286 10.8115 8.23266 10.7442 7.70122 11.257L7.11943 11.8183C6.52768 12.3893 5.77347 12.708 5.00011 12.7632V16C5.00011 17.8638 6.27488 19.4299 8.00011 19.874V18C8.00011 15.7909 9.79097 14 12.0001 14C14.2092 14 16.0001 15.7909 16.0001 18V19.874C17.7253 19.4299 19.0001 17.8638 19.0001 16V12.7286ZM3.96355 6.9522C4.43653 5.20965 6.01828 4 7.82388 4H15.9166C17.6304 4 19.1538 5.09183 19.7045 6.71482L20.5115 9.09321C20.6898 9.61896 20.5001 10.1994 20.0457 10.5183C19.531 10.8795 18.8282 10.8022 18.4042 10.3379L18.1623 10.0729C16.8074 8.58886 14.4605 8.62123 13.147 10.1421L13.0475 10.2573C12.5352 10.8505 11.6063 10.8202 11.1337 10.1949C9.96512 8.64842 7.70734 8.47182 6.31248 9.81773L5.73069 10.3791C5.24797 10.8449 4.50276 10.903 3.95367 10.5177C3.47078 10.1788 3.252 9.57369 3.40653 9.00437L3.96355 6.9522ZM10.0001 20V18C10.0001 16.8954 10.8955 16 12.0001 16C13.1047 16 14.0001 16.8954 14.0001 18V20H10.0001Z" fill="#4F4F4F"/>
</svg>
